<mxfile host="app.diagrams.net" modified="2024-03-28T07:21:48.491Z" agent="Mozilla/5.0 (Windows NT 10.0; Win64; x64) AppleWebKit/537.36 (KHTML, like Gecko) Chrome/123.0.0.0 Safari/537.36 Edg/123.0.0.0" etag="oM5DucfVZzszsFfgHyu4" version="24.1.0" type="github">
  <diagram name="第 1 页" id="XMMu1WaElMCEHJz5GcHH">
    <mxGraphModel dx="2026" dy="1153" grid="1" gridSize="10" guides="1" tooltips="1" connect="1" arrows="1" fold="1" page="1" pageScale="1" pageWidth="2336" pageHeight="1654" math="0" shadow="0">
      <root>
        <mxCell id="0" />
        <mxCell id="1" parent="0" />
        <mxCell id="H90W-LeO9eNFpw4Knfnw-34" value="" style="rounded=0;whiteSpace=wrap;html=1;fillColor=none;strokeWidth=2;strokeColor=#52FF9D;glass=0;shadow=1;textShadow=1;" parent="1" vertex="1">
          <mxGeometry x="370" y="1360" width="1910" height="150" as="geometry" />
        </mxCell>
        <mxCell id="1BC19tzi-7-pTtwrjPw2-1" value="" style="endArrow=classic;startArrow=classic;html=1;rounded=0;" parent="1" edge="1">
          <mxGeometry width="50" height="50" relative="1" as="geometry">
            <mxPoint x="835" y="970" as="sourcePoint" />
            <mxPoint x="834.5" y="120" as="targetPoint" />
          </mxGeometry>
        </mxCell>
        <mxCell id="1BC19tzi-7-pTtwrjPw2-17" style="edgeStyle=orthogonalEdgeStyle;rounded=0;orthogonalLoop=1;jettySize=auto;html=1;exitX=0;exitY=0.5;exitDx=0;exitDy=0;entryX=1;entryY=0.5;entryDx=0;entryDy=0;" parent="1" source="1BC19tzi-7-pTtwrjPw2-2" target="1BC19tzi-7-pTtwrjPw2-7" edge="1">
          <mxGeometry relative="1" as="geometry" />
        </mxCell>
        <mxCell id="1BC19tzi-7-pTtwrjPw2-2" value="MeshVertices&amp;nbsp;vertices" style="rounded=1;whiteSpace=wrap;html=1;fillColor=none;" parent="1" vertex="1">
          <mxGeometry x="1020" y="170" width="180" height="40" as="geometry" />
        </mxCell>
        <mxCell id="1BC19tzi-7-pTtwrjPw2-3" style="edgeStyle=orthogonalEdgeStyle;rounded=0;orthogonalLoop=1;jettySize=auto;html=1;exitX=1;exitY=1;exitDx=0;exitDy=0;entryX=1;entryY=0.75;entryDx=0;entryDy=0;opacity=0;" parent="1" source="1BC19tzi-7-pTtwrjPw2-2" target="1BC19tzi-7-pTtwrjPw2-2" edge="1">
          <mxGeometry relative="1" as="geometry" />
        </mxCell>
        <mxCell id="1BC19tzi-7-pTtwrjPw2-4" value="MeshEdges&amp;nbsp; edges" style="rounded=1;whiteSpace=wrap;html=1;fillColor=none;" parent="1" vertex="1">
          <mxGeometry x="1020" y="270" width="180" height="40" as="geometry" />
        </mxCell>
        <mxCell id="1BC19tzi-7-pTtwrjPw2-5" value="MeshFacets facets" style="rounded=1;whiteSpace=wrap;html=1;fillColor=none;" parent="1" vertex="1">
          <mxGeometry x="1020" y="370" width="180" height="40" as="geometry" />
        </mxCell>
        <mxCell id="1BC19tzi-7-pTtwrjPw2-6" value="MeshCells cells" style="rounded=1;whiteSpace=wrap;html=1;fillColor=none;" parent="1" vertex="1">
          <mxGeometry x="1020" y="550" width="180" height="40" as="geometry" />
        </mxCell>
        <mxCell id="1BC19tzi-7-pTtwrjPw2-7" value="vtkPoints*&amp;nbsp; Points" style="rounded=1;whiteSpace=wrap;html=1;fillColor=none;" parent="1" vertex="1">
          <mxGeometry x="430" y="170" width="180" height="40" as="geometry" />
        </mxCell>
        <mxCell id="1BC19tzi-7-pTtwrjPw2-8" value="Geogram/Mesh" style="text;strokeColor=none;fillColor=none;html=1;fontSize=24;fontStyle=1;verticalAlign=middle;align=center;" parent="1" vertex="1">
          <mxGeometry x="1260" y="40" width="100" height="40" as="geometry" />
        </mxCell>
        <mxCell id="1BC19tzi-7-pTtwrjPw2-9" value="VTK/&lt;span style=&quot;text-wrap: wrap;&quot;&gt;&lt;font style=&quot;font-size: 24px;&quot;&gt;vtkCellArray&lt;/font&gt;&lt;/span&gt;" style="text;strokeColor=none;fillColor=none;html=1;fontSize=24;fontStyle=1;verticalAlign=middle;align=center;" parent="1" vertex="1">
          <mxGeometry x="370" y="40" width="100" height="40" as="geometry" />
        </mxCell>
        <mxCell id="1BC19tzi-7-pTtwrjPw2-10" value="1.&amp;nbsp;&lt;a href=&quot;https://vtk.org/doc/nightly/html/classvtkPolyData.html&quot;&gt;VTK: vtkPolyData Class Reference&lt;/a&gt;&lt;div&gt;2.&amp;nbsp;&lt;a href=&quot;https://vtk.org/doc/nightly/html/classvtkDataSet.html&quot;&gt;VTK: vtkDataSet Class Reference&lt;/a&gt;&lt;/div&gt;&lt;div&gt;3.&amp;nbsp;&lt;a href=&quot;https://vtk.org/doc/nightly/html/classvtkCell.html&quot;&gt;VTK: vtkCell Class Reference&lt;/a&gt;&lt;/div&gt;&lt;div&gt;4.&amp;nbsp;&lt;a href=&quot;https://examples.vtk.org/site/Cxx/GeometricObjects/LinearCellDemo/&quot;&gt;examples.vtk.org/site/Cxx/GeometricObjects/LinearCellDemo/&lt;/a&gt;&lt;br&gt;&lt;div&gt;5.&amp;nbsp;&lt;a style=&quot;background-color: initial;&quot; href=&quot;https://github.com/BrunoLevy/geogram/wiki/Mesh&quot;&gt;Mesh · BrunoLevy/geogram Wiki (github.com)&lt;/a&gt;&lt;/div&gt;&lt;/div&gt;&lt;div&gt;6.&amp;nbsp;&lt;a style=&quot;background-color: initial;&quot; href=&quot;https://masterwangzx.com/2018/10/23/vtk-data-structure/&quot;&gt;VTK的数据结构 — WZX&#39;s Blog (masterwangzx.com)&lt;/a&gt;&lt;/div&gt;" style="rounded=0;whiteSpace=wrap;html=1;align=left;" parent="1" vertex="1">
          <mxGeometry x="1860" y="10" width="370" height="90" as="geometry" />
        </mxCell>
        <mxCell id="1BC19tzi-7-pTtwrjPw2-11" value="继承自父类vtkPointSet" style="text;html=1;align=left;verticalAlign=middle;whiteSpace=wrap;rounded=0;" parent="1" vertex="1">
          <mxGeometry x="240" y="180" width="130" height="30" as="geometry" />
        </mxCell>
        <mxCell id="1BC19tzi-7-pTtwrjPw2-12" value="MeshFacetCornersStore facet_corners" style="rounded=1;whiteSpace=wrap;html=1;fillColor=none;" parent="1" vertex="1">
          <mxGeometry x="1020" y="870" width="230" height="40" as="geometry" />
        </mxCell>
        <mxCell id="1BC19tzi-7-pTtwrjPw2-13" value="&lt;div&gt;&amp;nbsp; vtkSmartPointer&amp;lt;vtkCellArray&amp;gt; Verts;&lt;/div&gt;&lt;div&gt;&amp;nbsp; vtkSmartPointer&amp;lt;vtkCellArray&amp;gt; Lines;&lt;/div&gt;&lt;div&gt;&amp;nbsp; vtkSmartPointer&amp;lt;vtkCellArray&amp;gt; Polys;&lt;/div&gt;&lt;div&gt;&amp;nbsp; vtkSmartPointer&amp;lt;vtkCellArray&amp;gt; Strips;&lt;/div&gt;" style="rounded=1;whiteSpace=wrap;html=1;fillColor=none;" parent="1" vertex="1">
          <mxGeometry x="390" y="270" width="220" height="130" as="geometry" />
        </mxCell>
        <mxCell id="1BC19tzi-7-pTtwrjPw2-14" value="&lt;span style=&quot;font-family: Roboto, sans-serif; font-size: 14px; background-color: rgb(255, 255, 255);&quot;&gt;concrete dataset represents vertices, lines, polygons, and triangle strips&lt;/span&gt;" style="text;html=1;align=left;verticalAlign=middle;whiteSpace=wrap;rounded=0;" parent="1" vertex="1">
          <mxGeometry x="210" y="90" width="460" height="30" as="geometry" />
        </mxCell>
        <mxCell id="1BC19tzi-7-pTtwrjPw2-15" value="&lt;span style=&quot;color: rgb(31, 35, 40); font-family: -apple-system, BlinkMacSystemFont, &amp;quot;Segoe UI&amp;quot;, &amp;quot;Noto Sans&amp;quot;, Helvetica, Arial, sans-serif, &amp;quot;Apple Color Emoji&amp;quot;, &amp;quot;Segoe UI Emoji&amp;quot;; font-size: 16px; background-color: rgb(255, 255, 255);&quot;&gt;Geogram has a general-purpose mesh data structure, that can represent surfacic and volumetric meshes, with triangles or polygonal facets for the surfacic part, and with tetrahedra, hexahedra, prisms and pyramids for the volumetric part.&lt;/span&gt;" style="text;html=1;align=left;verticalAlign=middle;whiteSpace=wrap;rounded=0;" parent="1" vertex="1">
          <mxGeometry x="1020" y="90" width="740" height="30" as="geometry" />
        </mxCell>
        <mxCell id="1BC19tzi-7-pTtwrjPw2-16" value="vtkCellType" style="text;html=1;align=center;verticalAlign=middle;whiteSpace=wrap;rounded=0;" parent="1" vertex="1">
          <mxGeometry x="40" y="200" width="60" height="30" as="geometry" />
        </mxCell>
        <mxCell id="1BC19tzi-7-pTtwrjPw2-20" value="" style="endArrow=classic;html=1;rounded=0;entryX=0.991;entryY=0.085;entryDx=0;entryDy=0;entryPerimeter=0;exitX=0;exitY=0.75;exitDx=0;exitDy=0;" parent="1" source="1BC19tzi-7-pTtwrjPw2-2" target="1BC19tzi-7-pTtwrjPw2-13" edge="1">
          <mxGeometry width="50" height="50" relative="1" as="geometry">
            <mxPoint x="700" y="280" as="sourcePoint" />
            <mxPoint x="750" y="230" as="targetPoint" />
          </mxGeometry>
        </mxCell>
        <mxCell id="1BC19tzi-7-pTtwrjPw2-21" value="&lt;font color=&quot;#0066cc&quot; face=&quot;Courier New&quot;&gt;点集，语义等价&lt;/font&gt;" style="text;html=1;align=center;verticalAlign=middle;whiteSpace=wrap;rounded=0;" parent="1" vertex="1">
          <mxGeometry x="770" y="160" width="130" height="30" as="geometry" />
        </mxCell>
        <mxCell id="1BC19tzi-7-pTtwrjPw2-22" value="&lt;font color=&quot;#0066cc&quot; style=&quot;font-size: 14px;&quot; face=&quot;Courier New&quot;&gt;可以作为VTK的Verts使用&lt;/font&gt;" style="text;html=1;align=center;verticalAlign=middle;whiteSpace=wrap;rounded=0;" parent="1" vertex="1">
          <mxGeometry x="760" y="220" width="190" height="30" as="geometry" />
        </mxCell>
        <mxCell id="1BC19tzi-7-pTtwrjPw2-23" style="edgeStyle=orthogonalEdgeStyle;rounded=0;orthogonalLoop=1;jettySize=auto;html=1;exitX=0;exitY=0.5;exitDx=0;exitDy=0;entryX=0.991;entryY=0.923;entryDx=0;entryDy=0;entryPerimeter=0;" parent="1" source="1BC19tzi-7-pTtwrjPw2-5" target="1BC19tzi-7-pTtwrjPw2-13" edge="1">
          <mxGeometry relative="1" as="geometry" />
        </mxCell>
        <mxCell id="1BC19tzi-7-pTtwrjPw2-24" value="&lt;font color=&quot;#0066cc&quot; style=&quot;font-size: 14px;&quot; face=&quot;Courier New&quot;&gt;为三角形或多边形面，对应vtkPoly Data的Polys&lt;/font&gt;" style="text;html=1;align=center;verticalAlign=middle;whiteSpace=wrap;rounded=0;" parent="1" vertex="1">
          <mxGeometry x="750" y="360" width="170" height="30" as="geometry" />
        </mxCell>
        <mxCell id="1BC19tzi-7-pTtwrjPw2-25" value="&lt;font face=&quot;Courier New&quot; color=&quot;#0066cc&quot;&gt;&lt;span style=&quot;font-size: 14px;&quot;&gt;每个edge两个端点，类似id数量为2的vtkPolyLine或者vtkLine&lt;/span&gt;&lt;/font&gt;" style="text;html=1;align=center;verticalAlign=middle;whiteSpace=wrap;rounded=0;" parent="1" vertex="1">
          <mxGeometry x="1220" y="275" width="200" height="55" as="geometry" />
        </mxCell>
        <mxCell id="1BC19tzi-7-pTtwrjPw2-26" value="&lt;font face=&quot;Courier New&quot; color=&quot;#0066cc&quot;&gt;&lt;span style=&quot;font-size: 14px;&quot;&gt;四面体网格等，vtkPolyData没有对应的拓扑可视化功能，VTK主要使用vtkUnstructuredGrid可视化体网格&lt;/span&gt;&lt;/font&gt;" style="text;html=1;align=center;verticalAlign=middle;whiteSpace=wrap;rounded=0;" parent="1" vertex="1">
          <mxGeometry x="1220" y="540" width="275" height="65" as="geometry" />
        </mxCell>
        <mxCell id="1BC19tzi-7-pTtwrjPw2-27" value="&lt;h1&gt;V0.3&lt;/h1&gt;" style="text;html=1;spacing=5;spacingTop=-20;whiteSpace=wrap;overflow=hidden;rounded=0;" parent="1" vertex="1">
          <mxGeometry x="110" y="20" width="70" height="40" as="geometry" />
        </mxCell>
        <mxCell id="H90W-LeO9eNFpw4Knfnw-1" value="派生vtkFloatArray，然后把MeshVertices的数据指针赋给vtkFloatArray的底层数据内存" style="rounded=1;whiteSpace=wrap;html=1;fillColor=none;" parent="1" vertex="1">
          <mxGeometry x="1380" y="170" width="180" height="50" as="geometry" />
        </mxCell>
        <mxCell id="H90W-LeO9eNFpw4Knfnw-2" value="MeshSubElementsStore&lt;div&gt;&lt;div&gt;Mesh&amp;amp; mesh_;&lt;/div&gt;&lt;div&gt;AttributesManager attributes_;&lt;/div&gt;&lt;div&gt;index_t nb_;&lt;/div&gt;&lt;/div&gt;" style="rounded=1;whiteSpace=wrap;html=1;fillColor=none;" parent="1" vertex="1">
          <mxGeometry x="1190" y="1040" width="280" height="70" as="geometry" />
        </mxCell>
        <mxCell id="H90W-LeO9eNFpw4Knfnw-3" value="MeshElements = 0&lt;div&gt;vertices, facets and cells&lt;br&gt;&lt;/div&gt;" style="rounded=1;whiteSpace=wrap;html=1;fillColor=none;" parent="1" vertex="1">
          <mxGeometry x="810" y="1570" width="210" height="70" as="geometry" />
        </mxCell>
        <mxCell id="H90W-LeO9eNFpw4Knfnw-4" value="&lt;div&gt;MeshVertices&lt;br&gt;&lt;/div&gt;&lt;div&gt;&lt;div&gt;MeshEdges&amp;amp; edges_;&lt;/div&gt;&lt;div&gt;MeshFacetCornersStore&amp;amp; facet_corners_;&lt;/div&gt;&lt;div&gt;MeshCellCornersStore&amp;amp; cell_corners_;&lt;/div&gt;&lt;div&gt;Attribute&amp;lt;double&amp;gt; point_;&lt;/div&gt;&lt;div&gt;Attribute&amp;lt;float&amp;gt; point_fp32_;&lt;/div&gt;&lt;/div&gt;" style="rounded=1;whiteSpace=wrap;html=1;fillColor=none;" parent="1" vertex="1">
          <mxGeometry x="395" y="1380" width="230" height="120" as="geometry" />
        </mxCell>
        <mxCell id="H90W-LeO9eNFpw4Knfnw-6" value="" style="curved=1;endArrow=classic;html=1;rounded=0;entryX=0.096;entryY=-0.035;entryDx=0;entryDy=0;exitX=0.374;exitY=1;exitDx=0;exitDy=0;exitPerimeter=0;entryPerimeter=0;" parent="1" source="H90W-LeO9eNFpw4Knfnw-4" target="H90W-LeO9eNFpw4Knfnw-3" edge="1">
          <mxGeometry width="50" height="50" relative="1" as="geometry">
            <mxPoint x="980" y="1330" as="sourcePoint" />
            <mxPoint x="900" y="1240" as="targetPoint" />
            <Array as="points">
              <mxPoint x="650" y="1540" />
            </Array>
          </mxGeometry>
        </mxCell>
        <mxCell id="H90W-LeO9eNFpw4Knfnw-8" value="" style="curved=1;endArrow=classic;html=1;rounded=0;entryX=0;entryY=1;entryDx=0;entryDy=0;exitX=0.8;exitY=-0.017;exitDx=0;exitDy=0;exitPerimeter=0;" parent="1" source="H90W-LeO9eNFpw4Knfnw-4" target="H90W-LeO9eNFpw4Knfnw-2" edge="1">
          <mxGeometry width="50" height="50" relative="1" as="geometry">
            <mxPoint x="970" y="1370" as="sourcePoint" />
            <mxPoint x="1140" y="1190" as="targetPoint" />
            <Array as="points">
              <mxPoint x="870" y="1270" />
            </Array>
          </mxGeometry>
        </mxCell>
        <mxCell id="H90W-LeO9eNFpw4Knfnw-9" value="MeshEdges&lt;div&gt;vector&amp;lt;index_t&amp;gt; edge_vertex_;&lt;br&gt;&lt;/div&gt;" style="rounded=1;whiteSpace=wrap;html=1;fillColor=none;" parent="1" vertex="1">
          <mxGeometry x="660" y="1380" width="230" height="120" as="geometry" />
        </mxCell>
        <mxCell id="H90W-LeO9eNFpw4Knfnw-10" value="MeshFacetsStore&lt;div&gt;bool is_simplicial_;&lt;br&gt;&lt;div&gt;vector&amp;lt;index_t&amp;gt; facet_ptr_;&lt;font color=&quot;#21ff5c&quot;&gt;&amp;nbsp;&lt;/font&gt;&lt;font color=&quot;#294cff&quot;&gt;// vttCellArray中的offset&lt;/font&gt;&lt;br&gt;&lt;/div&gt;&lt;/div&gt;" style="rounded=1;whiteSpace=wrap;html=1;fillColor=none;" parent="1" vertex="1">
          <mxGeometry x="1020" y="1240" width="210" height="70" as="geometry" />
        </mxCell>
        <mxCell id="H90W-LeO9eNFpw4Knfnw-11" value="" style="curved=1;endArrow=classic;html=1;rounded=0;entryX=0.329;entryY=-0.029;entryDx=0;entryDy=0;entryPerimeter=0;exitX=0.661;exitY=1.008;exitDx=0;exitDy=0;exitPerimeter=0;" parent="1" source="H90W-LeO9eNFpw4Knfnw-9" target="H90W-LeO9eNFpw4Knfnw-3" edge="1">
          <mxGeometry width="50" height="50" relative="1" as="geometry">
            <mxPoint x="819.375" y="1505.01" as="sourcePoint" />
            <mxPoint x="841.3" y="1310" as="targetPoint" />
            <Array as="points" />
          </mxGeometry>
        </mxCell>
        <mxCell id="H90W-LeO9eNFpw4Knfnw-12" value="" style="curved=1;endArrow=classic;html=1;rounded=0;entryX=0.086;entryY=1.057;entryDx=0;entryDy=0;entryPerimeter=0;" parent="1" source="H90W-LeO9eNFpw4Knfnw-9" target="H90W-LeO9eNFpw4Knfnw-2" edge="1">
          <mxGeometry width="50" height="50" relative="1" as="geometry">
            <mxPoint x="724" y="1370.04" as="sourcePoint" />
            <mxPoint x="1030" y="1182.04" as="targetPoint" />
            <Array as="points">
              <mxPoint x="930" y="1280" />
            </Array>
          </mxGeometry>
        </mxCell>
        <mxCell id="H90W-LeO9eNFpw4Knfnw-13" value="&lt;div&gt;&lt;div&gt;MeshFacetCornersStore&lt;br&gt;&lt;/div&gt;&lt;/div&gt;&lt;div&gt;&lt;div&gt;MeshVertices&amp;amp; vertices_;&lt;/div&gt;&lt;div&gt;MeshFacetsStore&amp;amp; facets_;&lt;/div&gt;&lt;div&gt;vector&amp;lt;index_t&amp;gt; corner_vertex_;&lt;/div&gt;&lt;div&gt;vector&amp;lt;index_t&amp;gt; corner_adjacent_facet_;&lt;/div&gt;&lt;/div&gt;" style="rounded=1;whiteSpace=wrap;html=1;fillColor=none;" parent="1" vertex="1">
          <mxGeometry x="1510" y="1380" width="220" height="90" as="geometry" />
        </mxCell>
        <mxCell id="H90W-LeO9eNFpw4Knfnw-14" value="" style="curved=1;endArrow=classic;html=1;rounded=0;entryX=0.176;entryY=1.043;entryDx=0;entryDy=0;exitX=0.467;exitY=0.014;exitDx=0;exitDy=0;exitPerimeter=0;entryPerimeter=0;" parent="1" source="H90W-LeO9eNFpw4Knfnw-10" target="H90W-LeO9eNFpw4Knfnw-2" edge="1">
          <mxGeometry width="50" height="50" relative="1" as="geometry">
            <mxPoint x="988" y="1367.96" as="sourcePoint" />
            <mxPoint x="1091" y="1180" as="targetPoint" />
            <Array as="points" />
          </mxGeometry>
        </mxCell>
        <mxCell id="H90W-LeO9eNFpw4Knfnw-16" value="" style="curved=1;endArrow=classic;html=1;rounded=0;exitX=0.395;exitY=-0.056;exitDx=0;exitDy=0;exitPerimeter=0;entryX=0.716;entryY=1.071;entryDx=0;entryDy=0;entryPerimeter=0;" parent="1" source="H90W-LeO9eNFpw4Knfnw-13" target="H90W-LeO9eNFpw4Knfnw-2" edge="1">
          <mxGeometry width="50" height="50" relative="1" as="geometry">
            <mxPoint x="1199.96" y="1236" as="sourcePoint" />
            <mxPoint x="1240" y="1180" as="targetPoint" />
            <Array as="points" />
          </mxGeometry>
        </mxCell>
        <mxCell id="H90W-LeO9eNFpw4Knfnw-17" value="&lt;div&gt;&lt;div&gt;MeshFacets&lt;br&gt;&lt;/div&gt;&lt;div&gt;MeshVertices&amp;amp; vertices_;&amp;nbsp; &amp;nbsp; &amp;nbsp; &amp;nbsp;&amp;nbsp;&lt;/div&gt;&lt;div&gt;MeshFacetCornersStore&amp;amp; facet_corners_;&lt;font color=&quot;#294cff&quot;&gt;//&amp;nbsp;&lt;/font&gt;&lt;/div&gt;&lt;div&gt;&lt;font color=&quot;#294cff&quot;&gt;vtkCellArray的connectivity&lt;/font&gt;&lt;/div&gt;&lt;/div&gt;" style="rounded=1;whiteSpace=wrap;html=1;fillColor=none;" parent="1" vertex="1">
          <mxGeometry x="940" y="1380" width="240" height="120" as="geometry" />
        </mxCell>
        <mxCell id="H90W-LeO9eNFpw4Knfnw-18" value="" style="curved=1;endArrow=classic;html=1;rounded=0;entryX=0.605;entryY=-0.043;entryDx=0;entryDy=0;entryPerimeter=0;" parent="1" target="H90W-LeO9eNFpw4Knfnw-3" edge="1">
          <mxGeometry width="50" height="50" relative="1" as="geometry">
            <mxPoint x="1020.2886362809868" y="1500" as="sourcePoint" />
            <mxPoint x="909.72" y="1300" as="targetPoint" />
            <Array as="points" />
          </mxGeometry>
        </mxCell>
        <mxCell id="H90W-LeO9eNFpw4Knfnw-19" value="" style="curved=1;endArrow=classic;html=1;rounded=0;exitX=0.461;exitY=0.008;exitDx=0;exitDy=0;exitPerimeter=0;" parent="1" source="H90W-LeO9eNFpw4Knfnw-17" edge="1">
          <mxGeometry width="50" height="50" relative="1" as="geometry">
            <mxPoint x="909.6300000000001" y="1507.96" as="sourcePoint" />
            <mxPoint x="1090" y="1310" as="targetPoint" />
            <Array as="points">
              <mxPoint x="1060" y="1350" />
            </Array>
          </mxGeometry>
        </mxCell>
        <mxCell id="H90W-LeO9eNFpw4Knfnw-20" value="&lt;div&gt;CellDescriptor&lt;br&gt;&lt;/div&gt;" style="rounded=1;whiteSpace=wrap;html=1;fillColor=none;" parent="1" vertex="1">
          <mxGeometry x="1790" y="1090" width="160" height="40" as="geometry" />
        </mxCell>
        <mxCell id="H90W-LeO9eNFpw4Knfnw-22" value="" style="curved=1;endArrow=classic;html=1;rounded=0;entryX=0.619;entryY=1.043;entryDx=0;entryDy=0;exitX=0.371;exitY=-0.014;exitDx=0;exitDy=0;entryPerimeter=0;exitPerimeter=0;" parent="1" source="H90W-LeO9eNFpw4Knfnw-21" target="H90W-LeO9eNFpw4Knfnw-2" edge="1">
          <mxGeometry width="50" height="50" relative="1" as="geometry">
            <mxPoint x="1309.04" y="1211" as="sourcePoint" />
            <mxPoint x="1200" y="1150" as="targetPoint" />
            <Array as="points" />
          </mxGeometry>
        </mxCell>
        <mxCell id="H90W-LeO9eNFpw4Knfnw-23" value="MeshCellCornersStore&lt;br&gt;&lt;div&gt;&lt;div&gt;MeshVertices&amp;amp; vertices_;&lt;/div&gt;&lt;div&gt;vector&amp;lt;index_t&amp;gt; corner_vertex_;&lt;/div&gt;&lt;/div&gt;" style="rounded=1;whiteSpace=wrap;html=1;fillColor=none;" parent="1" vertex="1">
          <mxGeometry x="1780" y="1380" width="210" height="70" as="geometry" />
        </mxCell>
        <mxCell id="H90W-LeO9eNFpw4Knfnw-24" value="" style="curved=1;endArrow=classic;html=1;rounded=0;entryX=0.814;entryY=1.029;entryDx=0;entryDy=0;exitX=0.067;exitY=-0.029;exitDx=0;exitDy=0;exitPerimeter=0;entryPerimeter=0;" parent="1" source="H90W-LeO9eNFpw4Knfnw-23" target="H90W-LeO9eNFpw4Knfnw-2" edge="1">
          <mxGeometry width="50" height="50" relative="1" as="geometry">
            <mxPoint x="1560" y="1210" as="sourcePoint" />
            <mxPoint x="1360" y="1130" as="targetPoint" />
            <Array as="points">
              <mxPoint x="1470" y="1170" />
            </Array>
          </mxGeometry>
        </mxCell>
        <mxCell id="H90W-LeO9eNFpw4Knfnw-25" value="MeshCellFacetsStore&lt;div&gt;&lt;div&gt;MeshVertices&amp;amp; vertices_;&lt;/div&gt;&lt;div&gt;MeshCellsStore&amp;amp; cells_;&lt;/div&gt;&lt;div&gt;vector&amp;lt;index_t&amp;gt; adjacent_cell_;&lt;/div&gt;&lt;/div&gt;" style="rounded=1;whiteSpace=wrap;html=1;fillColor=none;" parent="1" vertex="1">
          <mxGeometry x="2040" y="1380" width="210" height="70" as="geometry" />
        </mxCell>
        <mxCell id="H90W-LeO9eNFpw4Knfnw-26" value="" style="curved=1;endArrow=classic;html=1;rounded=0;entryX=0.939;entryY=1.014;entryDx=0;entryDy=0;exitX=0;exitY=0;exitDx=0;exitDy=0;entryPerimeter=0;" parent="1" source="H90W-LeO9eNFpw4Knfnw-25" target="H90W-LeO9eNFpw4Knfnw-2" edge="1">
          <mxGeometry width="50" height="50" relative="1" as="geometry">
            <mxPoint x="1814" y="1228" as="sourcePoint" />
            <mxPoint x="1360" y="1110" as="targetPoint" />
            <Array as="points">
              <mxPoint x="1590" y="1190" />
            </Array>
          </mxGeometry>
        </mxCell>
        <mxCell id="H90W-LeO9eNFpw4Knfnw-27" value="MeshCells&lt;div&gt;&lt;div&gt;MeshVertices&amp;amp; vertices_;&lt;/div&gt;&lt;div&gt;MeshCellCornersStore&amp;amp; cell_corners_;&lt;/div&gt;&lt;div&gt;MeshCellFacetsStore&amp;amp; cell_facets_;&lt;/div&gt;&lt;/div&gt;" style="rounded=1;whiteSpace=wrap;html=1;fillColor=none;" parent="1" vertex="1">
          <mxGeometry x="1230" y="1380" width="230" height="120" as="geometry" />
        </mxCell>
        <mxCell id="H90W-LeO9eNFpw4Knfnw-28" value="" style="curved=1;endArrow=classic;html=1;rounded=0;entryX=0.348;entryY=1.029;entryDx=0;entryDy=0;exitX=0.426;exitY=-0.008;exitDx=0;exitDy=0;entryPerimeter=0;exitPerimeter=0;" parent="1" source="H90W-LeO9eNFpw4Knfnw-27" target="H90W-LeO9eNFpw4Knfnw-21" edge="1">
          <mxGeometry width="50" height="50" relative="1" as="geometry">
            <mxPoint x="1549.97" y="1391" as="sourcePoint" />
            <mxPoint x="1604.6000000000001" y="1320" as="targetPoint" />
            <Array as="points" />
          </mxGeometry>
        </mxCell>
        <mxCell id="H90W-LeO9eNFpw4Knfnw-29" value="" style="curved=1;endArrow=classic;html=1;rounded=0;entryX=0.79;entryY=-0.052;entryDx=0;entryDy=0;entryPerimeter=0;" parent="1" target="H90W-LeO9eNFpw4Knfnw-3" edge="1">
          <mxGeometry width="50" height="50" relative="1" as="geometry">
            <mxPoint x="1243.2386362809868" y="1500" as="sourcePoint" />
            <mxPoint x="1209.95" y="1567" as="targetPoint" />
            <Array as="points" />
          </mxGeometry>
        </mxCell>
        <mxCell id="H90W-LeO9eNFpw4Knfnw-30" value="&lt;div&gt;MeshElementsFlags&lt;br&gt;&lt;/div&gt;" style="rounded=1;whiteSpace=wrap;html=1;fillColor=none;" parent="1" vertex="1">
          <mxGeometry x="1790" y="1140" width="160" height="40" as="geometry" />
        </mxCell>
        <mxCell id="H90W-LeO9eNFpw4Knfnw-21" value="&lt;div&gt;&lt;div&gt;MeshCellsStore&lt;br&gt;&lt;/div&gt;&lt;/div&gt;&lt;div&gt;&lt;div&gt;bool is_simplicial_;&lt;/div&gt;&lt;div&gt;vector&amp;lt;Numeric::uint8&amp;gt; cell_type_;&lt;/div&gt;&lt;div&gt;vector&amp;lt;index_t&amp;gt; cell_ptr_;&lt;/div&gt;&lt;/div&gt;" style="rounded=1;whiteSpace=wrap;html=1;fillColor=none;" parent="1" vertex="1">
          <mxGeometry x="1240" y="1240" width="210" height="70" as="geometry" />
        </mxCell>
        <mxCell id="H90W-LeO9eNFpw4Knfnw-35" value="&lt;font color=&quot;#ff2d0d&quot; face=&quot;Courier New&quot; style=&quot;font-size: 24px;&quot;&gt;&lt;b&gt;Mesh&lt;/b&gt;&lt;/font&gt;" style="text;html=1;align=center;verticalAlign=middle;whiteSpace=wrap;rounded=0;" parent="1" vertex="1">
          <mxGeometry x="2150" y="1470" width="60" height="30" as="geometry" />
        </mxCell>
        <mxCell id="H90W-LeO9eNFpw4Knfnw-36" value="&lt;div&gt;MeshCellType&lt;br&gt;&lt;/div&gt;" style="rounded=1;whiteSpace=wrap;html=1;fillColor=none;" parent="1" vertex="1">
          <mxGeometry x="1790" y="1040" width="160" height="40" as="geometry" />
        </mxCell>
        <mxCell id="H90W-LeO9eNFpw4Knfnw-37" value="&lt;font face=&quot;Courier New&quot; color=&quot;#294cff&quot;&gt;index buffer？参考create_polygon与set_vertex&lt;/font&gt;" style="text;html=1;align=left;verticalAlign=middle;whiteSpace=wrap;rounded=0;" parent="1" vertex="1">
          <mxGeometry x="1520" y="1470" width="200" height="30" as="geometry" />
        </mxCell>
        <mxCell id="H90W-LeO9eNFpw4Knfnw-38" value="Notes:&lt;div&gt;1. vtkPoints默认float，Geogram的MeshVertices默认double，Mesh构造函数可以设置&lt;/div&gt;&lt;div&gt;2. vtk的id默认是64位，Geogram的index默认32位，defs.h可以设置为64位&lt;/div&gt;" style="rounded=0;whiteSpace=wrap;html=1;align=left;" parent="1" vertex="1">
          <mxGeometry x="1760" y="120" width="500" height="60" as="geometry" />
        </mxCell>
        <mxCell id="z10PdW8iMCry290luzMG-1" value="&lt;font face=&quot;Courier New&quot; color=&quot;#294cff&quot;&gt;cell_type_, cell类型&lt;/font&gt;&lt;div&gt;&lt;font face=&quot;Courier New&quot; color=&quot;#294cff&quot;&gt;cell_ptr_, 存放类型，nb()+1&lt;/font&gt;&lt;/div&gt;" style="text;html=1;align=left;verticalAlign=middle;whiteSpace=wrap;rounded=0;" parent="1" vertex="1">
          <mxGeometry x="1330" y="1320" width="200" height="30" as="geometry" />
        </mxCell>
        <mxCell id="z10PdW8iMCry290luzMG-2" style="edgeStyle=orthogonalEdgeStyle;rounded=0;orthogonalLoop=1;jettySize=auto;html=1;exitX=0;exitY=0.5;exitDx=0;exitDy=0;entryX=1;entryY=0.5;entryDx=0;entryDy=0;" parent="1" edge="1">
          <mxGeometry relative="1" as="geometry">
            <mxPoint x="1020" y="290" as="sourcePoint" />
            <mxPoint x="610" y="290" as="targetPoint" />
          </mxGeometry>
        </mxCell>
        <mxCell id="z10PdW8iMCry290luzMG-3" value="&lt;font color=&quot;#0066cc&quot; face=&quot;Courier New&quot;&gt;vtkLine&lt;/font&gt;" style="text;html=1;align=center;verticalAlign=middle;whiteSpace=wrap;rounded=0;" parent="1" vertex="1">
          <mxGeometry x="770" y="260" width="130" height="30" as="geometry" />
        </mxCell>
        <mxCell id="z10PdW8iMCry290luzMG-4" value="vtkSmartPointer&amp;lt;vtkCellArray&amp;gt; Connectivity;&lt;br&gt;&lt;div&gt;vtkSmartPointer&amp;lt;vtkUnsignedCharArray&amp;gt; Types;&lt;br&gt;&lt;/div&gt;" style="rounded=1;whiteSpace=wrap;html=1;fillColor=none;" parent="1" vertex="1">
          <mxGeometry x="390" y="500" width="220" height="130" as="geometry" />
        </mxCell>
        <mxCell id="z10PdW8iMCry290luzMG-5" value="&lt;font face=&quot;Courier New&quot; color=&quot;#0066cc&quot;&gt;&lt;span style=&quot;font-size: 14px;&quot;&gt;volumetric, vtkTetra/VTK_HEXAHEDRON/&lt;/span&gt;&lt;/font&gt;&lt;div&gt;&lt;font face=&quot;Courier New&quot; color=&quot;#0066cc&quot;&gt;&lt;span style=&quot;font-size: 14px;&quot;&gt;VTK_WEDGE/VTK_PYRAMID&lt;/span&gt;&lt;/font&gt;&lt;/div&gt;" style="text;html=1;align=center;verticalAlign=middle;whiteSpace=wrap;rounded=0;" parent="1" vertex="1">
          <mxGeometry x="730" y="530" width="170" height="30" as="geometry" />
        </mxCell>
        <mxCell id="z10PdW8iMCry290luzMG-6" style="edgeStyle=orthogonalEdgeStyle;rounded=0;orthogonalLoop=1;jettySize=auto;html=1;exitX=0;exitY=0.5;exitDx=0;exitDy=0;entryX=0.991;entryY=0.923;entryDx=0;entryDy=0;entryPerimeter=0;" parent="1" edge="1">
          <mxGeometry relative="1" as="geometry">
            <mxPoint x="1020" y="569.51" as="sourcePoint" />
            <mxPoint x="608" y="569.51" as="targetPoint" />
          </mxGeometry>
        </mxCell>
        <mxCell id="z10PdW8iMCry290luzMG-8" value="&lt;div&gt;typedef enum&lt;/div&gt;&lt;div&gt;{&lt;/div&gt;&lt;div&gt;&amp;nbsp; // Linear cells&lt;/div&gt;&lt;div&gt;&amp;nbsp; VTK_EMPTY_CELL = 0,&lt;/div&gt;&lt;div&gt;&amp;nbsp; VTK_VERTEX = 1,&lt;/div&gt;&lt;div&gt;&amp;nbsp; VTK_POLY_VERTEX = 2,&lt;/div&gt;&lt;div&gt;&amp;nbsp; VTK_LINE = 3,&lt;/div&gt;&lt;div&gt;&amp;nbsp; VTK_POLY_LINE = 4,&lt;/div&gt;&lt;div&gt;&amp;nbsp; VTK_TRIANGLE = 5,&lt;/div&gt;&lt;div&gt;&amp;nbsp; VTK_TRIANGLE_STRIP = 6,&lt;/div&gt;&lt;div&gt;&amp;nbsp; VTK_POLYGON = 7,&lt;/div&gt;&lt;div&gt;&amp;nbsp; VTK_PIXEL = 8,&lt;/div&gt;&lt;div&gt;&amp;nbsp; VTK_QUAD = 9,&lt;/div&gt;&lt;div&gt;&amp;nbsp; VTK_TETRA = 10,&lt;/div&gt;&lt;div&gt;&amp;nbsp; VTK_VOXEL = 11,&lt;/div&gt;&lt;div&gt;&amp;nbsp; VTK_HEXAHEDRON = 12,&lt;/div&gt;&lt;div&gt;&amp;nbsp; VTK_WEDGE = 13,&lt;/div&gt;&lt;div&gt;&amp;nbsp; VTK_PYRAMID = 14,&lt;/div&gt;&lt;div&gt;&amp;nbsp; VTK_PENTAGONAL_PRISM = 15,&lt;/div&gt;&lt;div&gt;&amp;nbsp; VTK_HEXAGONAL_PRISM = 16,&lt;/div&gt;&lt;div&gt;&lt;br&gt;&lt;/div&gt;&lt;div&gt;&amp;nbsp; // Quadratic, isoparametric cells&lt;/div&gt;&lt;div&gt;&amp;nbsp; VTK_QUADRATIC_EDGE = 21,&lt;/div&gt;&lt;div&gt;&amp;nbsp; VTK_QUADRATIC_TRIANGLE = 22,&lt;/div&gt;&lt;div&gt;&amp;nbsp; VTK_QUADRATIC_QUAD = 23,&lt;/div&gt;&lt;div&gt;&amp;nbsp; VTK_QUADRATIC_POLYGON = 36,&lt;/div&gt;&lt;div&gt;&amp;nbsp; VTK_QUADRATIC_TETRA = 24,&lt;/div&gt;&lt;div&gt;&amp;nbsp; VTK_QUADRATIC_HEXAHEDRON = 25,&lt;/div&gt;&lt;div&gt;&amp;nbsp; VTK_QUADRATIC_WEDGE = 26,&lt;/div&gt;&lt;div&gt;&amp;nbsp; VTK_QUADRATIC_PYRAMID = 27,&lt;/div&gt;&lt;div&gt;&amp;nbsp; VTK_BIQUADRATIC_QUAD = 28,&lt;/div&gt;&lt;div&gt;&amp;nbsp; VTK_TRIQUADRATIC_HEXAHEDRON = 29,&lt;/div&gt;&lt;div&gt;&amp;nbsp; VTK_TRIQUADRATIC_PYRAMID = 37,&lt;/div&gt;&lt;div&gt;&amp;nbsp; VTK_QUADRATIC_LINEAR_QUAD = 30,&lt;/div&gt;&lt;div&gt;&amp;nbsp; VTK_QUADRATIC_LINEAR_WEDGE = 31,&lt;/div&gt;&lt;div&gt;&amp;nbsp; VTK_BIQUADRATIC_QUADRATIC_WEDGE = 32,&lt;/div&gt;&lt;div&gt;&amp;nbsp; VTK_BIQUADRATIC_QUADRATIC_HEXAHEDRON = 33,&lt;/div&gt;&lt;div&gt;&amp;nbsp; VTK_BIQUADRATIC_TRIANGLE = 34,&lt;/div&gt;&lt;div&gt;&lt;br&gt;&lt;/div&gt;&lt;div&gt;&amp;nbsp; // Cubic, isoparametric cell&lt;/div&gt;&lt;div&gt;&amp;nbsp; VTK_CUBIC_LINE = 35,&lt;/div&gt;&lt;div&gt;&lt;br&gt;&lt;/div&gt;&lt;div&gt;&amp;nbsp; // Special class of cells formed by convex group of points&lt;/div&gt;&lt;div&gt;&amp;nbsp; VTK_CONVEX_POINT_SET = 41,&lt;/div&gt;&lt;div&gt;&lt;br&gt;&lt;/div&gt;&lt;div&gt;&amp;nbsp; // Polyhedron cell (consisting of polygonal faces)&lt;/div&gt;&lt;div&gt;&amp;nbsp; VTK_POLYHEDRON = 42,&lt;/div&gt;&lt;div&gt;&lt;br&gt;&lt;/div&gt;&lt;div&gt;&amp;nbsp; // Higher order cells in parametric form&lt;/div&gt;&lt;div&gt;&amp;nbsp; VTK_PARAMETRIC_CURVE = 51,&lt;/div&gt;&lt;div&gt;&amp;nbsp; VTK_PARAMETRIC_SURFACE = 52,&lt;/div&gt;&lt;div&gt;&amp;nbsp; VTK_PARAMETRIC_TRI_SURFACE = 53,&lt;/div&gt;&lt;div&gt;&amp;nbsp; VTK_PARAMETRIC_QUAD_SURFACE = 54,&lt;/div&gt;&lt;div&gt;&amp;nbsp; VTK_PARAMETRIC_TETRA_REGION = 55,&lt;/div&gt;&lt;div&gt;&amp;nbsp; VTK_PARAMETRIC_HEX_REGION = 56,&lt;/div&gt;&lt;div&gt;&lt;br&gt;&lt;/div&gt;&lt;div&gt;&amp;nbsp; // Higher order cells&lt;/div&gt;&lt;div&gt;&amp;nbsp; VTK_HIGHER_ORDER_EDGE = 60,&lt;/div&gt;&lt;div&gt;&amp;nbsp; VTK_HIGHER_ORDER_TRIANGLE = 61,&lt;/div&gt;&lt;div&gt;&amp;nbsp; VTK_HIGHER_ORDER_QUAD = 62,&lt;/div&gt;&lt;div&gt;&amp;nbsp; VTK_HIGHER_ORDER_POLYGON = 63,&lt;/div&gt;&lt;div&gt;&amp;nbsp; VTK_HIGHER_ORDER_TETRAHEDRON = 64,&lt;/div&gt;&lt;div&gt;&amp;nbsp; VTK_HIGHER_ORDER_WEDGE = 65,&lt;/div&gt;&lt;div&gt;&amp;nbsp; VTK_HIGHER_ORDER_PYRAMID = 66,&lt;/div&gt;&lt;div&gt;&amp;nbsp; VTK_HIGHER_ORDER_HEXAHEDRON = 67,&lt;/div&gt;&lt;div&gt;&lt;br&gt;&lt;/div&gt;&lt;div&gt;&amp;nbsp; // Arbitrary order Lagrange elements (formulated separated from generic higher order cells)&lt;/div&gt;&lt;div&gt;&amp;nbsp; VTK_LAGRANGE_CURVE = 68,&lt;/div&gt;&lt;div&gt;&amp;nbsp; VTK_LAGRANGE_TRIANGLE = 69,&lt;/div&gt;&lt;div&gt;&amp;nbsp; VTK_LAGRANGE_QUADRILATERAL = 70,&lt;/div&gt;&lt;div&gt;&amp;nbsp; VTK_LAGRANGE_TETRAHEDRON = 71,&lt;/div&gt;&lt;div&gt;&amp;nbsp; VTK_LAGRANGE_HEXAHEDRON = 72,&lt;/div&gt;&lt;div&gt;&amp;nbsp; VTK_LAGRANGE_WEDGE = 73,&lt;/div&gt;&lt;div&gt;&amp;nbsp; VTK_LAGRANGE_PYRAMID = 74,&lt;/div&gt;&lt;div&gt;&lt;br&gt;&lt;/div&gt;&lt;div&gt;&amp;nbsp; // Arbitrary order Bezier elements (formulated separated from generic higher order cells)&lt;/div&gt;&lt;div&gt;&amp;nbsp; VTK_BEZIER_CURVE = 75,&lt;/div&gt;&lt;div&gt;&amp;nbsp; VTK_BEZIER_TRIANGLE = 76,&lt;/div&gt;&lt;div&gt;&amp;nbsp; VTK_BEZIER_QUADRILATERAL = 77,&lt;/div&gt;&lt;div&gt;&amp;nbsp; VTK_BEZIER_TETRAHEDRON = 78,&lt;/div&gt;&lt;div&gt;&amp;nbsp; VTK_BEZIER_HEXAHEDRON = 79,&lt;/div&gt;&lt;div&gt;&amp;nbsp; VTK_BEZIER_WEDGE = 80,&lt;/div&gt;&lt;div&gt;&amp;nbsp; VTK_BEZIER_PYRAMID = 81,&lt;/div&gt;&lt;div&gt;&lt;br&gt;&lt;/div&gt;&lt;div&gt;&amp;nbsp; VTK_NUMBER_OF_CELL_TYPES&lt;/div&gt;&lt;div&gt;} VTKCellType;&lt;/div&gt;" style="rounded=0;whiteSpace=wrap;html=1;align=left;fontColor=#0066cc;fillColor=none;" parent="1" vertex="1">
          <mxGeometry x="40" y="230" width="320" height="1300" as="geometry" />
        </mxCell>
        <mxCell id="z10PdW8iMCry290luzMG-9" value="&lt;div&gt;enum MeshCellType {&lt;/div&gt;&lt;div&gt;&amp;nbsp; &amp;nbsp; MESH_TET = 0,&lt;/div&gt;&lt;div&gt;&amp;nbsp; &amp;nbsp; MESH_HEX = 1,&lt;/div&gt;&lt;div&gt;&amp;nbsp; &amp;nbsp; MESH_PRISM = 2,&lt;/div&gt;&lt;div&gt;&amp;nbsp; &amp;nbsp; MESH_PYRAMID = 3,&lt;/div&gt;&lt;div&gt;&amp;nbsp; &amp;nbsp; MESH_CONNECTOR = 4,&lt;/div&gt;&lt;div&gt;&amp;nbsp; &amp;nbsp; MESH_NB_CELL_TYPES = 5&lt;/div&gt;&lt;div&gt;};&lt;/div&gt;" style="rounded=0;whiteSpace=wrap;html=1;align=left;fontColor=#0066cc;" parent="1" vertex="1">
          <mxGeometry x="2040" y="1040" width="220" height="140" as="geometry" />
        </mxCell>
        <mxCell id="z10PdW8iMCry290luzMG-10" value="MeshCellType" style="text;html=1;align=center;verticalAlign=middle;whiteSpace=wrap;rounded=0;" parent="1" vertex="1">
          <mxGeometry x="2040" y="1010" width="80" height="30" as="geometry" />
        </mxCell>
        <mxCell id="z10PdW8iMCry290luzMG-11" value="&lt;span style=&quot;font-weight: normal;&quot;&gt;&lt;font color=&quot;#0066cc&quot; style=&quot;font-size: 20px;&quot;&gt;vtkPolyData&lt;/font&gt;&lt;/span&gt;" style="text;strokeColor=none;fillColor=none;html=1;fontSize=24;fontStyle=1;verticalAlign=middle;align=center;" parent="1" vertex="1">
          <mxGeometry x="395" y="265" width="135" height="40" as="geometry" />
        </mxCell>
        <mxCell id="z10PdW8iMCry290luzMG-12" value="&lt;font color=&quot;#0066cc&quot;&gt;&lt;span style=&quot;font-size: 20px; font-weight: 400;&quot;&gt;vtkUnstructuredGrid&lt;/span&gt;&lt;/font&gt;" style="text;strokeColor=none;fillColor=none;html=1;fontSize=24;fontStyle=1;verticalAlign=middle;align=center;" parent="1" vertex="1">
          <mxGeometry x="395" y="490" width="185" height="40" as="geometry" />
        </mxCell>
        <mxCell id="z10PdW8iMCry290luzMG-13" value="MeshSubElementsStore" style="rounded=1;whiteSpace=wrap;html=1;fillColor=none;" parent="1" vertex="1">
          <mxGeometry x="1020" y="730" width="170" height="40" as="geometry" />
        </mxCell>
        <mxCell id="z10PdW8iMCry290luzMG-14" value="&lt;font face=&quot;Courier New&quot; color=&quot;#0066cc&quot;&gt;&lt;span style=&quot;font-size: 14px;&quot;&gt;通过AttributesManager维护顶点属性&lt;/span&gt;&lt;/font&gt;" style="text;html=1;align=center;verticalAlign=middle;whiteSpace=wrap;rounded=0;" parent="1" vertex="1">
          <mxGeometry x="1210" y="717.5" width="275" height="65" as="geometry" />
        </mxCell>
        <mxCell id="z10PdW8iMCry290luzMG-15" value="&lt;span style=&quot;font-weight: normal;&quot;&gt;&lt;font color=&quot;#0066cc&quot; style=&quot;font-size: 20px;&quot;&gt;vtkPolyData&lt;/font&gt;&lt;/span&gt;" style="text;strokeColor=none;fillColor=none;html=1;fontSize=24;fontStyle=1;verticalAlign=middle;align=center;" parent="1" vertex="1">
          <mxGeometry x="395" y="680" width="135" height="40" as="geometry" />
        </mxCell>
        <mxCell id="z10PdW8iMCry290luzMG-16" value="&lt;div&gt;polydata-&amp;gt;GetPointData()-&amp;gt;AddArray(texCoords);&lt;/div&gt;&lt;div&gt;polydata-&amp;gt;GetPointData()-&amp;gt;SetActiveTCoords(&quot;TCoords&quot;)&lt;/div&gt;" style="rounded=1;whiteSpace=wrap;html=1;fillColor=none;" parent="1" vertex="1">
          <mxGeometry x="390" y="685" width="220" height="130" as="geometry" />
        </mxCell>
        <mxCell id="z10PdW8iMCry290luzMG-17" style="edgeStyle=orthogonalEdgeStyle;rounded=0;orthogonalLoop=1;jettySize=auto;html=1;exitX=0;exitY=0.5;exitDx=0;exitDy=0;entryX=0.991;entryY=0.923;entryDx=0;entryDy=0;entryPerimeter=0;" parent="1" edge="1">
          <mxGeometry relative="1" as="geometry">
            <mxPoint x="1020" y="749.38" as="sourcePoint" />
            <mxPoint x="608" y="749.38" as="targetPoint" />
          </mxGeometry>
        </mxCell>
        <mxCell id="z10PdW8iMCry290luzMG-18" value="&lt;font face=&quot;Courier New&quot; color=&quot;#0066cc&quot;&gt;&lt;span style=&quot;font-size: 14px;&quot;&gt;geogram和vtk的各顶点属性，都有一套各自的默认命名&lt;/span&gt;&lt;/font&gt;" style="text;html=1;align=center;verticalAlign=middle;whiteSpace=wrap;rounded=0;" parent="1" vertex="1">
          <mxGeometry x="730" y="710" width="190" height="30" as="geometry" />
        </mxCell>
        <mxCell id="VefUTxR1TiPQvv86hBua-1" value="" style="shape=image;verticalLabelPosition=bottom;labelBackgroundColor=default;verticalAlign=top;aspect=fixed;imageAspect=0;image=data:image/png,iVBORw0KGgoAAAANSUhEUgAAAlwAAAD/CAIAAACraZ+OAAAAAXNSR0IArs4c6QAAAARnQU1BAACxjwv8YQUAAAAJcEhZcwAADsMAAA7DAcdvqGQAACnMSURBVHhe7Z0LtFXVee8lifgARF4x1zxaTYyvFOsr1WhMTWlM6k3wESMILaihSduBwWSYMsxtTb3VWxFFxUFu0GgOHUZ71StlMExkOCLKQCSlXF6Bc7RBoXCqgBxADo99Htxv728ymcy199prv9Zj799vfOOw1lxzzTnX2nt8f761vzXnMYcAAACgAKIIAABgQBQBAAAMiCIAAIABUQQAADAgigAAAAZEEQAAwIAoAgAAGBBFAAAAA6IIAABgQBQBAAAMiCIAAIABUQQAADAgigAAAAZEEQAAwIAoAgAAGBBFAAAAA6IIAABgQBQBAAAMiCIAAIABUQQAADCkSBQnz1l3zwsbzQ4AAEDspEIURQtHTVkshigCAECCJCyKu7p7rrp3pWjh5h37z/vhMkQRAAASJA5RnDxnnQieyJ7ZP3To2TfePX3qkqUdXWb/0CFEEQAAEicOURQJHDVlsfw1+wWZlABRwkSzjygCAEAKiEMUVfBECN1dT/8QRQAASJyYflN0n6BKyGi3LYgiAAAkTkyi6P6IKAJpo0YLoggAAIkTkyh6Wabu74sKoggAAIkTkygKIniii08u3uql2CiIIgAAJE58ori0o2v0HcvEiiofoggAAIkTnyjqE1Tv9UQLoggAAIkTnygCAACkHEQRAADAgCgCAAAYEEUAAABDnUXx6aefvuKPvzxo8NCBx59w7ujzZ86caQ4AAACknnqK4i3f/suPnf4HJ425e+SkhSNvfunk//7wp87/yue/8KVdu3aZGgAAACmmbqJ49913n3LW5bpWsGvDLpxw9dfHmkoAAAAppj6iuHfv3mMHDhw+7heeIqqd8vtnv/zyy6YqAABAWqmPKC5YsOAT51zmaaG1kz5/6/Tp001VAACAtFIfUXz88cdHjP66p4XWhnxp+mcvu/aeFzb+9OUtr27YuX7LXnMaAABAmqiPKM6fP/8Tn7vC00Jrgy6ecvaf3Dz+4TU3PbJ2wiNrJ87O27S2dlcmt+/JmbYAAAASoj6i2NXVNWDAgBE3PefJodoJHzv7Gz947M5n3rrhwdV5m7X6RrGH1owTmSwopZVJMZFJAkoAAEiE+oii8KMf/eiUc7/syaHY4AsnjzrzMtFCEcX1W7rFlrR3zV+xbebCTUdk8sHV38rL5OpxD60pBJRrJhRkUpUSmQQAgHiomygKN4ybcOqZnx/6tftHffvXIofDrnvshDO/dupnzvvW/3rlmvtXXf9AXvxEDt/dddA1Tya/89j6IzI5y5FJnrsCAECDqacoCnPnzj3vgosHDPjQgA99eOCwT4645Jb/8X/+Y+3mvT9+buPYGauunblK1E5DRk8aXdOAUmXSCyj1uWteJh8+SiY1oBSZJKAEAICqqbMoKn19fQcOHLjk75afdfvSK+9eIaIotmDF9klz1knI+M0SIWOIWZm0AaWVycJzV36eBACAOtAQUVSm/+Ktc76/9MxpSxeu3KG6WGnIGG5ybsnnrgWZNPmuzs+TvBYCAAAhNFAUOzq7z/3+62fevnTKT9dbURSrJWQMN08mbUBpZNL8PMlrIQAAUJwGiqJw9X0rz77dDxbV6hgyhpg0K1bkuWshi8f+PHnTI2usTOpz1+eXv0dACQDQajRWFGcv2nSOBIvTlmq6jWeNCxnDzQsojUz6ASWvhQAAtByNFUXBS7cJWjwhY7h5MslrIc3E5h37z/vhMn1rVjZk1xwAAAjQcFGcNOe3wXQbz2zIaN9lTEQaXZMBiKlMegFlqddCrEwSUKaHXd09k+esUyGU7avuXYkuAkAIDRfFhSu359NtpvnpNkFLQ8gYYlYmSz53NT9PHpFJnrumjWffePf0qUuWdnSZfQCAo2m4KAqX/N3ys29fesH0ZSHBoloKQ8Zwk+GF/TzJayGxILGgF/+VEj9EEQDCiUMU7QuLRdNtgiYho0hjakPGcPNk8ui3J/l5siGI1I2aslj+mv2CTF5178pd3T1mv4D+uCh32+wDAASIQxQFTbe59oHVnv6VssyFjCEmIxeTS/ADykIWT9GfJ/W5Kz9PRkTVToTQ3bXiJ3GhRIeimsSIAFCWmEQxSrpN0DIdMoabF1AamQz8PKnPXa1M8ty1FO4TVAkZvaepCok2AFCWmEQxerqNZ80UMoabJ5P+rHU8dw3F/bFQBNJGjR5eEAkA4BGTKAqabhPywmKINXHIGGJymWIqk25AqTJZ9LmrK5MtFVBqFCiXr7Ln/r7ootVKSSYAQHyiWHR+8OjWOiFjiFmZtAGlyqRVylZ+LUQUUQTvycVbgyk2FiJFAAgnPlEUKk23CZoNGb/ZSiFjuMlN4LUQYWlH1+g7lom5micho93lN0UAKEusophPtykxP3h0c0LG/NPUJ17ZijR65slki7wWopoXTDGVS9M53sR4cAoA4cQqijbdJuILiyFGyFiRyf0RK/LcVWSyEFDyWggAgBCrKAq1pNt4piHj2MO/MhIyVmpeQGlkkp8nAaCFiVsUa0y3CdpDL24mZKyXeTLpvxZif54s8dzVfMYAAJklblE0y/FX/sJiiBEyNs7kToqpTLoBpZHJcq+FMGsdAGSLuEVRCFmOvxYjZIzHrEwW+3ky//ZkQ5+7PvXUUxMmTrz4C18ae+31jz76aH9/vzkAAFAPEhDF2Ys21SvdxjNCxqRM7nPpnyedfNeCTAYDSvPNCGXr1q2XXP6lT55z6ZAr7jj56lknffnvf+/CP/vk739m6dKlpgYAQM0kIIqCvrBYl3SboBEypsE8mTzq58lZ1bwW8ocXXTL4opvtyxVqQ/74zqHDRr7zzjumEgBAbSQjinVPt/GMkDGFJh+BmMikfByB565lXgv5m+n3nHreVzxFVBt84eRbb73VfLEAAGojGVGsen7wioyQMf2mMlniueuRnydHnHb+0D+b6cmh2oiJL5w4aIj5YgEA1EYyoijoC4tRluOvxQgZM2fyAQWfuw4cPHLEhP/ryaG1QUNHdHZ2mi8WlOa73/3uxRdfvHnzZrMPAAESE8XZizZVtBx/LUbImF175fV/v//RJ48bNHT4t/7Z00JrA48/cdeuXeaLBYcR8RMJnDFjhtlPQhTlc7nmmmuOKfDpT3/69ddfNwdKI4N0xxzk+eef1waFsm1Ka6bqMcfIiaYUoDSJiaJQ+/zg0c0JGZkxNe227q0tP3l8nthXvnq12qkf/8TgS6d6Wqh28tUPnn3uaPOVAgdRC9GMcIFpKKqIgv6Xpawky1BVvULGLKePGTPGCqGeUkrt5Kg9FF4TwJKkKFa3HH8tRsiYZlMt/N4P/tZqobUbxk0YeOJJw8c94ymi2MfOuGDu3LnmKwUOiYuiKJAbyQUjV4vKpxwKqVMUPVHk1uyXptKWoWVJUhTjSbfxzISMMwgZ02KltPCmP79Zyp/9119JHfmMRn/99uOGf8pNtxl2/c9OOfPSSbdMMd+npiAYTrnSUupppOrfXXfdpUfF9buPDQUVg2DjUq4V3NZK9SIE62vXRWVJCqUdDRMFbdYtCYIoQuIkKYpCHecHr8gIGRM31UJRvqJa+Mrr/+5Wls/oxodWXz7pvk+edubIU08bdcYfffT3zho2YtT9999vvknNgkigSI77lM9KiwqAbku5+HdPmbwTtdCVAVcUtTV3d86cOba8aC+yHaxfShS1Ha/cHUBRKpWu6PXtbTT7ACVIWBQb/cJiiDkhI4mp8VlFWqgmivitWasnzF77/PL35Duzbt26RYsWrVixQr9CTYZ6easlrtN39ck7VFSZwkXRa81SqhdPLMtSVBSlHTuAorgXVRbtouhVKFqhENmG/U4J4JKwKApxptsEjZAxHlMt9IRQTLVQjnr1rcl/VuS/LDc9suYeZz395saVLon8dDuoSa7qBPVPCBdF2XZbU8J7kb/R1cU90SLn1ksUtaaMxw2OQ5A2o1eGViZ5UazLcvy1GO8yNs4k8qtOC9WWtHflFfHhNdPa2s3XpQUQx22jHxEV1RXVmHzIczQqYJWKYlHFEsJ7cY8Gz/XQyl41OwCzHyCiKKrC2bsUEeldL8TsAxQjeVGs43L8tRghY71Mg8L/+U8PeEIoplro1S9l8hGIIo57eM3E2WtbarFGlRPx+6oQGtwU1RhLdaIoeAoR3otFKogmBU/3CIpQsMQjiiiqIpYdZBA5MVySAYTkRVFIKt3GszSHjF17e/Yd7Mv19vf09h/o6ftgf+/2PTmvTrKmWlg0iVQKo2uhtUJyTcspoiLuW8Rj3rx5roSE+PRKRVG2pbxopBXSi0uUal4XUllOcccTpGydolcakbKSDCCkQhQTTLcJmhsyfuex9UvauzxnHbO9t/ugSGBfYN1AUcede3u8yvFbiBZKub5QUYVpco0ooibXtBri+i8q4Hp/FQzr1uXvxIkTVXKKSoXWdyMqVxT1qN2V1jSbtFQvsnHXXXdpoWAFRrt2e7F4TUXRJD0lRPPkkB1zOFJHerTdyYkSX/KbIpQlFaLY0dmt6TZxvrAYYhIyTmvrSEnIuHtfT19hKd3Jc9bZV/SefeNdKZGQMal4UbVQlK+oFhZNIo1u+eSaWatvemRt6yTXeIgrF/0IRnKqGeLcBfdoUVEURAO0sh5yRVHQXrSC21p4L1pu5U0Li4qi4DZVVhEFrR8uitqaiztIF3fA7oUDhJAKURQmzfltI5bjr8XiDBl37Mnt2dcrJhu2sKu7Z++B3lyvUcTzfrhs8479si1ScfrUJUs7uiR8FMm09WOwhmqhWmsm1wBASkiLKDZuOf5abEn7Lg0Zr2vk9Dfbduf2HezT+yBR4a7uHon/pESfmMpf0T9RQYkOZVuiRqlw1b0rRSblqFTbtttvsO6mWugJoZhqoRz16ldtLZtcAwApIS2iKOgT1MTTbYJmQsb7GxUyFh6QHokF9+f69JGpqKBGhBIa6qGDhRSbfqdy456gitSFv1Dh1a+LtXJyDQCkgRSJYqrSbTwzIeOMhoSMewo6JxKoPxb29vWLLsoNEeWTiFDiQrshcaH8Fb20T1BzPf3uE9faTYPCoi9UVJdEGt3yitjCyTUAkAZSJIqJzA9ekTUoZHz/g1xPb7+EfRL86UNR0Ujd1UwTK4rdB3u7RBT7jgSRud7+HR/UQRRVC0slkTZUC9XyyTUPrp7Qwsk1AJAGUiSKgr6w2Ojl+GuxRoSM23Yf1N8U7UNR2RbZs9uNE8VwLaxL4kwUI7kGAFJCukSxsBx/PlhMVbpN0OoeMupDUSt1citECDVq1O36Pj5VLRTlS1YL1VQRx5NcAwApIF2iKCQ7P3h080LGmQs31RIyirAd7MkLnoifCJ4+OxWN7BcK72Bo1Hiwp18TbWzJgVwFiTaqhZ4QiqkWylGvfjwm/6sguQYAUkLqRDH+5fhrsTqGjHsP5F9IFLUTXXxy8VYNDXO9/RpBag5O4ZWMQ6qdGkd2H+h9r9wrGeFJpElpoZpNNyW5BgDSQOpEMf3pNp45IWN++puqQ8ade3t6+/qXdnSNvmOZmKijRISilDaCtD8x2jCxr/BSo9eOmgaFIVro1U/E5F7lF0okuQYAUkPqRFGw6Tae/KTZ2l7rrDFk3LY7tz9n9E9/L+zp7X//g5y+xajlOsebVcfCm/tHPTtVLQwmzog1+oWKSs0k16CIAJAm0iiK9oXFnyza4mlPmq32kFGUT4I/vQkaJr63O5+bmn+yaoqPcCDXZ1NsSmmhBoVVz8rdOLPJNdPa2rfvyZlLgsPYKUOjzBcKAHUkjaIoZCXdJmg1how7C0tE6aQ2brnopRTmevt7+/rl7wf7eyVGVC0U5SuqhTEnkUY3+b+C3JlxJNeUQOfpRg4bhJ0kXSg1j3kIcnr4R+POgS6ETG4uFJ1jvSwVdeFOod6IwQjRu1CkozFjxqR2fvaUimLiy/HXYvVNTA1aRrXQmp255tUNO83nDQ7q8qI4F6gUVURdQEo1IPp9tpoRLhgitLZNPaWU9LoD0A89okhH70Ku1NbUay91vVUPJnoXgpVz+YsoVkZKluOvxTRkvKZ+7zKqFnpCKKZaKEe9+uk0XSiR5JoQEMUGIUomeub6ernJEb2z1FQtlNMrjaJKdeE1JYoisiTipLvRiXgVwct3qctgwruQNnWc0W97IqRUFAVNt0nh/ODRLSRkFBmbMOmWL/7J1ZNu+cuf/fO/WM0IWppfqKjUDifXrEERSyH+Qv4fbZFdKRT3IU5ES4LeRP97rsi2KS24OVNabnFd26nnB90WXI+pUcVdd90lhXJITrdxhj3FG6e6Sz3k9hJsSgrd61UPqyXuGKpA+3Jvhd668JvjIeOpaBhyRcGPTNAr0utV7D00+5Ep1YVHiGLVazAhXbhEHHBSpFcU0zw/eEXmhYxP/fI3nzv/8x8/57LBl91+0lfuGfyF20797EV/dPmVq9rfseKhQWHRWblVC23NDJmbXGM+YyiG56HE0YiXUQ+iTkewTlkOuRozZ84cPSTl1u+EuH5t0NaUXV1/3+vIq6Ye023TK9FL8E63u3JpdszBpvRce/kvvfSS1PEarA7pwr1XgvZekeuXG1vRMErV167dD0WvUeqb/chEHFKIFNVrMCFduESslhTpFcW0Lcdfi9mQ8Rv3vj5o1OmDL/kbfbnC2pCLbzl79EWqhUWTSNP2QkWlJiGyKCILJUZB/VEpT+16dtkuqnZeubhLcZpFHZz04umEEixXv6mj0m23wWCJ24LXmnuBwRNLXVTtSJvuMITwW10UGWp0UZSW5VqKtq8X7l5myMcUQkgXijQoFYSQlmscTJQuXGS0iGKVpHA5/lpMQsbP/enNgz53naeIaoPPuPKMz57laaEIYQpfqKjCWCgxOiGeWj2goP6rlHMR3+SVS0lRV160XB2iV+56SfWh7giDJVaBgq1FaaoRTjNmUZSaITqhl1mjKIZ34SF9SeWiF1uXwQghXbhIhUZ8vvUi1aKYzuX4a7Hhp3xi+A1tnhyqnfyNRwcPHWG1MP1JpNHNJNcwl1s0PE+tu+Jr1N2o31H/JT6rqINWX+kRdEOlHF/Rci0UZKOUkrkldpx6oo7BpVRTgp4ryCGpYEprRpr1Gizaezil7rmLNivjD2lZ6+jnqOgHHfw4ihKliyBSuaga1TgYl1JduESpkyCpFkVBn6BmOt3G2m/a3/vIscd5Wmht5M2/Onbg8c2khWpPFBZKJLkmOuqPrLMTx+R6EBUM9V/eIUsUxy2oXAVrFi3XQvWSQS0JlthxuicGCZ5osX7fdda1EHT9wZKylL232mZZp+99ykKwpBQRuwgiVyonyulm/zC1DMajVBcu0mwVg4+NtIti06TbiK1+e/eAAQNGffvXnhyqjZj4wpChwz1FybqRXFMFrj8K6pOUW52Qv0U1I4pjUqS1ojWD5bItJdqXbusIlWCJOzYpL+UEgye6VO2ai6KtufIcMrBShIti8PMqRbBmxE8tehdBSl1v1YMJEuWWVnHb4yTtotjR2Z1/gtoU6TZiZ5938dCv3ufJodpJV/7oyj/9micqmTaSa6pDfbdVAtmw7kmVxoqN+jLXeWn2qZa7fkdcuZ7ioX3ZmnKiZp9qufWS2qDdDSpZsESHqp0GW5s4caKOueiJepagR2XXa6FqpCM7Ktu4HopIuChW1KZUk8HotesFuvehFNG7kEHKaPWTFdzuglQ3mIq6sEgFad+elTbSLoqCvrDYHMHiPz7wv0ed/oeeHIqNvPlXIz7+mZ//4jlPVzJtJNdUh+eSxO+IFxZfI8jGvHnzZMP1ieKV9Khgy92zBLe+h1tTvK343GC5IL1ouaB+2fV9wRL1j7ZfvShtyu0leKIQvCI9XcYjo9I6VSN9maZDb0spZGwhw9DLMa07eBdo0buklKrjUVEXpW57UaoYjFBRF4o0LqfIiWY/ZWRAFLOyHH9EG3vjzSPOuHT4DfOsIg677rGRp53/V1O/74lKpk2Ta0QRSa4BgAyRAVEUmindRmza9H849oQhJ576B4M/c8VHTxt98vBR//hPD3qikmk7nFzDXG4AkDGyIYrZWo4/io297/9d8dc/m3TnT//1V7/2FCXrZuZyI7kGADJINkQxc8vxh9uS9l1jZ+RnfZOIylOUrBvJNQCQabIhioKm22RrOf5StmDFdhFFEY/al85Im5FcAwCZJjOiWHhhMR8sZms5/qL20Iubr7k/L4qeomTd8opIcg0AZJnMiKKg6TZZXI7fsx8/t/Hamau+89h6T1QybfnkmlnMXAMA2SZLotg06TaT5qy77oFVEld5upJdI7kGAJqDLIlic6TbmCybB5ony0aTa8aTXAMA2SdLoihouk3Wl+NvsiwbkmsAoGnImCjadJvsPkFtsiwbq4gk1wBAE5AxUbTL8Wc33UZEsWmybJ54ZWt+oURmrkkInZ7UTsX53RIrSaUBO2OnO4cqQArJmCgKWV+Of1pbR3Nk2djkGhQxKdIjiuHTZOuc0Y2Tw/DeXfSO6ezVQtVDEo0fM2ZMlFsdpaY7qohzagfRRsKnOJ/hTIYe8asityj65OBBopwudcyYqpqive5kTxSzvhx/c2TZqCJqcs32PTnz2UC8qB8UouhB4yg7DA0TG+TvKroJ4qCtEKpURzzRomeJ+y4rKhFreuOX4ZVtOYjVlZCb7MmznBIuwFZBqxPFiKe71ys1q/4/QR3JnigK2Z0fvDkmeFu/pfs7j60fR3JN0lSkB42j7DDSI4oeMqSKvLDUVw8u7jtcuiqq6Y5Bakr9cCFx0frSSKU3OaQjvaVyqNLBKNFP98asJ9r/tSRFJkUxu8vxt73WqVk2mU49LSTX5GeueXXDTvORQF0RP6L/yxY8nyIexBw45ph58+bl1aBEkKEeR2vaOhbbheuR1SsFy7VT7U6P2gbd8QjBjmwQo6gHVHepJe6YlehjK9p72RjIIqdHrOkhIwwOuyhla8po3Zuml+mWRESuQq5Fb28U9CPwvl0eUeqEUPb04M3xvsOJkElRzO5y/Jplk+nU05kLN5Fc01DEr1k/ok7fejopd3dVb6wDdR2K/JVdLVffJLv5cw67XVtTdnW1fS23rUlfnvbYXfW/XoP2xCCev5Zqcq7t3T1Xdysam3dIkMbt0XCCTjki0U8Mr6mDt3dSkd0qRuXd5LJEqS9jkJHIJZj9Cil7ulyp+8EJUjniZ9c4MimKwtX3rcxiuk0+yybLqacmuYa53OLCdZrqYlwHqiXWrYQ4U9c1l/I7Xrnr0VQUdVtx+9JB2mEECfe/Um77rWJsZXsvhV6Uez+jI12XutUe4TV18N4YojfuEn6TPfQGlu1Fq+l9roKyp8uFex+c+2VIiqyKYkaX4x87Y9X1mc2ysck1zOUWD+pTbCyoTtz1ep4elBJFKXfjvKAnErymbIn662DXruMOnusR4q+lHWnZNl7F2IJHo6D9VnqWxb38cMJruhdiid64S3RR1JpCWe2RMchIZDxmv0LKnh78uGX8UQbWULIqikLm0m0ynWXDQomxIU5EdUIcyrp16/L+vuA4gv5CXaoelV1xMdaZquPTduREaVPPLeqFBS3X+i7auLQg267DtQ3KtjeMIDoYe7r6Sm1f2rGNVzc2Parb5oRQbO/BjizapvYiBBuXYdtbHU54Te3IG4n7ObpIU2ZAR//aqng3uRTSuJwecfB6r6Rfsx9APzuL13vZ02Uw3r2VysFLi5kMi2Lm5gdve61zbGazbJjLLR7UtVk/ok5THYcVDz0kuEdl1zpTr1ywviZ4SNFyzztbgl27zqtUmxbPX3tO3zZe3djK9u6ibrp2tyuX715CCGVrBoUhWBIF7yYXRVqWW22/XWXR2xW9vkfZ04M3p+ztioEMi2Lm5gfP7gRvooj55JrZa3/68hZz96ExWIXQXXUr6iLV67kuRkusA7Vio2e5KiLbVgmkhaKqEOKPvFEJbiPSu4zBDiOIjlNPD1aWpmzjVYytbO8u9haZ/WoJGY9H2ZreJUtNqS+Fuhsd9yYXJfghlqXqwShlT/eGpB+l+71NhAyLoqDzg18wfVkmgsVpbR1ZnODtiVe2FpJrSDeNA/Uj6hfUR4jXsB5fyq0TKXrU+l93W7ySVLOeV7uwR+VczfDUctua/J04caKeEvSnnit3uwvi+Wv3XG3ZNl7F2ASvd9l1x2bRRqp28S7SiNtjCGVrepcmg7fbFeHd5CBVtFzjHSt7ugxGhmTvT/S72lCyLYr2hcVMpNtols3MhZs81UmzkVwTP1YnBO9NREFcmx4SD/jSSy+5R11tUH+kNaVc3I2rE+qM9Khb7p7lluuQXIfrNWhPtINx8fy127tsyDXKRtGjUcYmeL3L9XoVFLcFF6lvakQmuvuOUtMdWNEbGAXvJgex3xyX8LHpwOQSzH6FRDnd/bjL3qh4yLYoClmZHzyLWTYmuYafEjOCeL2qXSoAKJkXxayk2yxYsT1zWTYk12QI/R93FUEPALhkXhSzkm6TuSwbm1zDQomZIPiEEwCqIPOiKGi6TcpfWPzxcxszlGVDck2GsL8VoYgAtdMMopiJ+cE1y0bCL09+UmhmLjeSawCg9WgGURRSnm5jsmyyMMEbM9cAQCvTJKKYT7dJ8fzgKoqZyLIhuQYAWpkmEUWbbpPOFxazkmWTV8RZeUUkuQYAWpMmEUUhzfOD6zKKKc+yySfXzCK5BgBamuYRxTSn2+SXUXxgVZqzbEiuAQAQmkcUOzq7JVhM5wuLmnqa2iwbTa4ZT3INALQ8zSOKQjqX40//BG8k1wAAKE0lirMXbUphuo3Nskln6mkhuWY1yTUAAEJTiaKQwnQbzbJJZ+qpBK/5udxIrgEAKNBsopjCdJt8lk0qU09JrgEA8Gg2UUzh/ODpzLJRRdTkmu17cub2AQC0Ns0mioLOD56S5fjTmWWzfku3RK4slAgA4NGEojh70ab0LMff9lpnCpdRLKSbklwDAODThKIopGd+8HyWTcomeJu5cBPJNQAARWlOUUzPcvzT2jpSNcGbSa55ZA2KCAAQpDlFMT3pNpplI8GZJ06JmE2umdbWTnINAECQ5hRFQdNtkn1hMVVZNmahRJJrAABK07SimIYXFhes2J6eLBvmcgMAKEvTiqKQeLpNepZRFEUkuQYAoCzNLIqJL8f/4+c2piHL5olXthaSa1BEAIAyNLMoJr4cv2bZSJTmqVSc5ibXmPsCAAAlaGZRFBJMtzFZNolO8GaSa1goEQAgGk0uigmm26goJptlY2euQREBAKLQ5KKoy/GfdXsCLywmnmVjkmuYyw0AIDJNLorCpDm/TWQ5fl1GMaksm8PJNcxcAwBQAc0vikktx59fRjGhLBszlxvJNQAAFdL8oijoE9SY02009TT+LBuSawAAqqYlRDH+dBs7wdv8Fds80Wq0FZJrUEQAgGpoCVGMf35wm2UTc+qpJteIIpJcAwBQBS0hioK+sBjbcvyJZNnkk2tmMXMNAED1tIooFpbjjy/dJp9lE68oklwDAFA7rSKKQpzzg8ecZaPJNeNJrgEAqI0WEsXYluOPfxlFkmsAAOpCC4libOk2ba91xrmMYl4RSa4BAKgHLSSKgk238WSsvpbPsolrgrd8cs2DLJQIAFAfWksU7QuLP1m0xVOyOtq0to54Uk9JrgEAqC+tJYpCDOk2mmUzc+EmT8Pqa6qIJNcAANSRlhPFRi/HH1uWjUSi40iuAQCoKy0nio1ejn/Biu0xZNnYdFOSawAA6kjLiaKg6TYNmh88hiybmQs35RdKJLkGAKDetKIoNnR+8EZn2ZjkGhZKBABoAK0oig1djl+zbO5szDKKNrlmWlv79j05cz0AAFAnWlEUhQYtx9/QLBuzUCLJNQAADaNFRbFBy/Hns2xmNCrLxibXvLphp7kMAACoKy0qioI+Qa1vuo1dRtHTs9pNFJHkGgCARtO6otiIdJsGLaNIcg0AQDy0rih2dHbnn6DWNd0mv4xivbNs3OQaM3QAAGgMrSuKgr6wWMdgUVNP65hlY5JrmMsNACAWWloU67scv009nb9im6dtVZtNrkERAQBioKVFUahjuo3NspHwztO26swk1zCXGwBAXLS6KNZxOf76Ztk8UVgokeQaAIA4aXVRrONy/IUsm/qIIsk1AACJ0OqiKGi6Te3L8dcry4bkGgCApEAU9YXFfLBYy3L8dZzgjeQaAICkQBTzaLpNLcvxt73WWZdlFDW5RhSR5BoAgPhBFPPUnm5Tl2UUDyfXMJcbAEAyIIp5ak+3qX0ZRTOXG8k1AADJgSgaNN2m6hcWNctm5sJNntRFNJJrAADSAKJosOk2VTxBrT3LhuQaAIA0gCga7HL8VaTb5JdRrCHLJq+IJNcAAKQARPEIVS/HX8syivnkGhZKBABIB4jiEapejr/qLBuSawAAUgWieBTVzQ9eXZaNJteMJ7kGACA1IIpHUcVy/FVn2UhkSXINAECqQBSPoorl+PNZNjMqzrKx6aYk1wAApAdE0efq+1ZWlG5TRZaNxJT5hRJJrgEASBmIok+ly/FXuoyiSa5BEQEA0geiWISK0m10GcU7n3nLE7+ipoqoyTXb9+RMfwAAkA4QxSJUND949Cyb9Vu6JaAcR3INAEBaQRSLEH1+cJt6On/FNk8CxbbtPrh7X8/+XF+ut7+nt/937+57aknnXz++4dUNO01PAACQJhDF4uj84BdMXxYeLIZk2bz/Qe5gT59p7jD9/Yfe2b7f7AAAQMpAFItTSLfJP0ENT7cplWWzbXdu38G8Ij77xrujpixWO33qkqUdXdo+AACkEESxJFHmB793/tuP/3rL00v/a8eenFXEru6evQd6e3r7N+/Yf9nf/8YK4T0vbBRpFJnUXQAASBuIYknKptts2Nr98pr3+/r7pXJPX/+u7p7te/IBYn7/0CH5p3DkUK63f9P2/XJU7Kp7V06es65wHAAAUgeiWJKy6TZv/te+3d09InLn/XCZBIX7c32794k49kssqE9KD/T0vbZh5yO/3Py9J9vlEKIIAJByEMUwNN2m1AuL//a73SKE+quh/O3t65ddOUtkT8RPJLCjs3vqExv+6vENsiHlIpwin7yzDwCQWhDFMMLnB3/m9Xff2bZfpU7jv/7+I8qX6+2f92rnnU+/9dvCK4kaJpJrAwCQZhDFMoSk29z59H8sWr2jrz8fGuoTVKkvIaNui14+uXjrf76fL1SlJMsGACDlIIplyKfblJgffOyMVQ+9uGnfwfwTVBsCikCK9fb1L3tz15uFp6aadEqMCACQfhDFMth0G++FRZ3L5ns/b+/sOqCPRkX8NCIUjezqzq3b/EH/YUXUh6sAAJByEMXyFJ0fPL+MYmEum0079qv4iS4+uXir/O3q7vndu/skgpTQUAJEOWQaAgCAdIMolqdouo2d4G3n3p7evn7Rv9F3LBMTCdyf69PkGtm2vzUCAED6QRTL09HZLcGi98LitLYOneBt2+6cqKCbXLrl/QN6oj479YwfFwEAUguiGIngcvxjZ6y6/oFVMxduenfXQVHEnl6dx+bQgVwfCyUCAGQURDESsxdtctNt7IpRdhnFn72yZfH6ncvf2r11pwkTAQAgcyCKUXHTbfJZNjPyPyguae8SRbzzmbdunLV64uy1zy9/z9QGAIAMgihGxU23cZdRlGDxhlmrb3pkDVmmAABZB1GMijs/+D3PrNIsG4kURRpvenjNtLZ2Uw8AADILolgB506eO/jTXxzw4WM/fPyQD31k4OkXjLlyatv4h9dMnL12feEdDAAAyDSIYlTmzp177PGDhnzxByMn/3LUlMUjJ7845PLvf3jgiZfc9A8oIgBAc4AoRuKNN9447oRBw6573H3jUGzYdY99ZODxy5cvN/UAACDLIIqRuPHGcYO/cJuniGqDL506bvx4Uw8AALIMohiJIUOHj5j4gieHaiMmPD902AhTDwAAsgyiWJ5cLjdgwABPC12To6YqAABkGUQxEsNHnTJ8/L94Wqg2fNzTIz/630w9AADIMohiJG699dZBF93qyaHaoAtvmTJliqkHAABZBlGMRHt7+7EDjxv6tfs9RRz61RkDjzv+zTffNPUAACDLIIpRmT9//nHHn3jiBX8x7Js/Hzn5xWHffPLE8//8+BMGLViwwNQAAICMgyhWwMaNG6dOnfqp0844cfBJ8ve22257++23zTEAAMg+iCIAAIABUQQAADAgigAAAAZEEQAAwIAoAgAAGBBFAAAAA6IIAABgQBQBAAAMiCIAAIABUQQAADAgigAAAAZEEQAAwIAoAgAAGBBFAAAAA6IIAABgQBQBAAAKHDr0/wG3B2Nwu7ttvwAAAABJRU5ErkJggg==;" vertex="1" parent="1">
          <mxGeometry x="1760" y="290" width="521.1" height="220" as="geometry" />
        </mxCell>
        <mxCell id="VefUTxR1TiPQvv86hBua-2" value="&lt;font face=&quot;Courier New&quot; color=&quot;#0066cc&quot;&gt;&lt;span style=&quot;font-size: 14px;&quot;&gt;Geogram的数据结构隐含了half edge的概念，在一个三角形内部，corner隐含为以改corner为起点，下一个corner为终点的half edge，有向边&lt;/span&gt;&lt;/font&gt;" style="text;html=1;align=left;verticalAlign=middle;whiteSpace=wrap;rounded=0;" vertex="1" parent="1">
          <mxGeometry x="1760" y="235" width="490" height="55" as="geometry" />
        </mxCell>
      </root>
    </mxGraphModel>
  </diagram>
</mxfile>
